<svg xml:space="preserve" style="max-height: 500px" viewBox="253 44 226 219" y="0px" x="0px" xmlns:xlink="http://www.w3.org/1999/xlink" xmlns="http://www.w3.org/2000/svg" version="1.1" width="226" height="219">
<g id="OBJECTS">
	<path d="M239.083,171.593c4.129-4.086-3.379-4.817-4.714-4.976c-0.685-0.083-1.724,0.372-2.571,0.833&#10;&#9;&#9;c-0.072-0.079-0.153-0.149-0.239-0.213c-0.855-0.637-1.71-1.274-2.564-1.911c0,0,2.844-0.362,4.134-2.187&#10;&#9;&#9;c0,0,2.443,1.44,5.036,0.144c2.592-1.296,1.392-9.698,1.392-9.698s7.924-10.657,2.621-20.781c-2.349-4.484-3.656-6.98-4.385-8.371&#10;&#9;&#9;c1.025-0.913,1.961-1.914,2.654-3.093c0.658-1.118,1.064-2.432,1.069-3.719c0.004-0.969-1.108-1.466-1.827-0.983&#10;&#9;&#9;c1.527-4.603,2.164-10.801-3.132-14.763c0,0-9.508,5.109-8.728,14.191c0,0-5.464-1.703-8.089-0.781l-2.601-13.979&#10;&#9;&#9;c0,0-1.16-2.582-6.258-1.678c-3.553,0.63-6.976,6.994-7.067,12.062c-0.231-0.059-0.463-0.118-0.694-0.177&#10;&#9;&#9;c-0.054-0.014-0.116-0.026-0.162,0.005c-0.048,0.033-0.056,0.098-0.061,0.156c-0.07,0.909-0.136,1.85,0.174,2.706&#10;&#9;&#9;c0.423,1.167,1.467,1.986,2.234,2.962l-4.659,3.08c0,0-3.949,4.902-13.243,8.046v-0.015c-6.037,0.457-12.14,0.044-18.06-1.224&#10;&#9;&#9;c1.063,0.99,2.223,1.876,3.459,2.639c-3.739-0.225-7.969-1.197-11.471,0.129c0.456,0.029,1.07,0.52,1.574,0.971&#10;&#9;&#9;c-6.534,0.16-12.918,1.174-18.729,3.516c0.141-0.486,0.274-0.975,0.394-1.467c2.102-8.618,0.969-17.985-3.126-25.855&#10;&#9;&#9;c-1.15-2.209-2.53-4.279-4.084-6.21l0.172,0.04c-4.795-5.33-9.026-11.167-12.6-17.382c-0.181,1.95,0.274,3.955,1.28,5.636&#10;&#9;&#9;c-1.738-1.727-3.633-3.33-5.804-4.464c-2.172-1.135-4.646-1.783-7.083-1.527c0.851,0.395,1.587,1.032,2.101,1.817&#10;&#9;&#9;c-3.597-1.03-7.396-1.328-11.113-0.903c-6.303-0.625-12.729-0.279-18.975,0.816c-2.972,0.521-5.924,1.22-8.788,2.161l0.188-0.188&#10;&#9;&#9;c-0.482,0.207-0.967,0.413-1.454,0.618c-1.188,0.427-2.36,0.896-3.508,1.422c-4.514,1.728-9.177,3.013-13.939,2.575&#10;&#9;&#9;c0.783,0.699,1.564,1.398,2.347,2.097c-3.791,2.319-6.571,6.233-7.512,10.576c0.712-0.581,1.424-1.161,2.137-1.742&#10;&#9;&#9;c-0.753,1.768-1.403,3.579-1.968,5.416c-2.8,5.87-4.203,12.396-3.816,18.895c0.287,4.82,1.467,9.571,1.493,14.399&#10;&#9;&#9;c0.026,4.828-1.344,10.013-5.124,13.018c4.589,0.124,9.149-2.496,11.352-6.524c0.312,1.349,0.219,2.789-0.261,4.088&#10;&#9;&#9;c3.444-0.847,6.052-3.58,8.455-6.188c2.155-2.339,4.309-4.677,6.464-7.016c0.636-0.691,1.317-1.41,2.216-1.681&#10;&#9;&#9;c2.262-0.681,4.326,1.987,4.195,4.346c-0.131,2.359-1.576,4.403-2.587,6.538c-1.011,2.135-1.528,4.893-0.001,6.695&#10;&#9;&#9;c-0.752-0.844-1.504-1.687-2.255-2.531c-1.528,3.465-0.398,7.904,2.602,10.216c-1.075-0.386-1.988-1.202-2.492-2.228&#10;&#9;&#9;c-1.443,5.446-2.842,11.448-0.394,16.522c2.735,5.668,9.249,8.191,14.34,11.891c-1.813-0.368-3.627-0.737-5.44-1.105&#10;&#9;&#9;c2.506,4.888,7.104,8.384,11.947,10.974c4.789,2.561,9.937,4.4,14.725,6.96c0.903,1.758,2.555,3.193,4.129,4.477&#10;&#9;&#9;c-1.637,0.261-3.246,0.696-4.792,1.295c3.852,0.764,7.533,2.38,10.702,4.698c-1.481,0.122-2.942,0.496-4.3,1.099&#10;&#9;&#9;c2.739,0.473,5.391,1.394,7.856,2.676c0.382,0.356,4.515,4.304,4.687,8.375c0.172,4.064,5.655,7.011,19.669,7.183&#10;&#9;&#9;c0.611,0.03,1.227,0.033,1.846,0.01c0.104-0.001,0.198,0.002,0.303,0.002l-0.002-0.013c1.38-0.072,2.776-0.261,4.187-0.604&#10;&#9;&#9;c0,0,10.435-1.444,14.691,0.651c4.256,2.095,13.73,1.82,20.869,1.271c3.954-0.304,7.87,0.805,11.698,1.838&#10;&#9;&#9;c0.204,0.055,0.436,0.106,0.613-0.009c0.112-0.073,0.177-0.199,0.223-0.324c0.274-0.739,0.018-1.642-0.604-2.126&#10;&#9;&#9;c1.75,0.27,3.319,1.282,5.068,1.559c2.314,0.367,4.794-0.572,6.974,0.286c0.167,0.066,0.391,0.129,0.501-0.014&#10;&#9;&#9;c0.04-0.052,0.052-0.12,0.06-0.185c0.442-1.416-0.369-5.317-1.462-6.321c-1.092-1.003-2.517-1.551-3.91-2.059&#10;&#9;&#9;c-2.504-0.913-5.065-1.777-7.724-1.956c-0.284-0.019-0.579-0.033-0.83-0.169c-0.639-0.346-0.662-1.248-1.058-1.858&#10;&#9;&#9;c-0.715-1.102-2.344-0.956-3.627-0.68c-0.759,0.163-1.517,0.326-2.275,0.49c4.99-8.683,12.843-26.166,0.798-34.152&#10;&#9;&#9;c0,0-2.93-2.454,0.925-4.294c0.583-0.278,1.252-0.521,1.971-0.752c2.705,0.02,5.41,0.133,8.063,0.64&#10;&#9;&#9;c1.664,0.318,3.304,0.79,4.992,0.939c1.688,0.149,3.474-0.055,4.889-0.988c0.711-0.469,1.298-1.099,1.877-1.724&#10;&#9;&#9;c1.822-1.964,3.644-3.927,5.466-5.891c1.25,1.108,3.051,2.191,5.236,2.062c0,0,0.511-2.108-0.32-3.131&#10;&#9;&#9;c0.533,0.083,1.078,0.248,1.611,0.438c0.333,0.654,0.614,1.33,0.536,1.768c-0.102,0.551,0.34,1.541,0.657,2.014&#10;&#9;&#9;c0.054,0.088,0.131,0.171,0.147,0.277c0.009,0.115-0.067,0.225-0.148,0.31c-0.305,0.32-0.735,0.493-1.107,0.737&#10;&#9;&#9;c-0.371,0.251-0.718,0.64-0.667,1.09c0.052,0.491,0.588,0.822,1.09,0.818c0.502-0.005,0.957-0.25,1.396-0.5&#10;&#9;&#9;c0.432-0.24,0.883-0.502,1.382-0.522c-0.058,0.51-0.223,1.008-0.473,1.457c-0.301,0.541-0.28,1.226,0.156,1.665&#10;&#9;&#9;c1.44,1.448,3.787-1.775,4.462-2.77c0.111-0.176,0.181-0.276,0.181-0.276l-0.002-0.008c0.074-0.117,0.156-0.236,0.24-0.348&#10;&#9;&#9;c0.439-0.577,0.951-1.054,1.63-1.316c4.739-1.835,3.586-4.818,3.586-4.818C242.208,175.697,239.083,171.593,239.083,171.593z" style="fill:#FA4616;"/>
	<path d="M442.239,312.973c-5.294-8.548-13.041-15.39-21.609-20.649c-13.42-8.25-29.073-12.822-44.825-13.104&#10;&#9;&#9;c-6.813-0.125-14.222,0.382-19.792-3.543c-3.883-2.729-6.152-7.152-8.271-11.397c-0.094,1.16-0.488,2.28-1.142,3.242&#10;&#9;&#9;c-0.772-0.572-1.543-1.144-2.315-1.716c-0.858,3.181-1.716,6.363-2.569,9.553c-0.85-0.578-1.884-0.884-2.911-0.857&#10;&#9;&#9;c-1.245,10.304-2.028,22.097,5.065,29.675c-1.32,0.091-2.636,0.169-3.96,0.251c5.226,10.258,14.611,18.037,25.16,22.64&#10;&#9;&#9;c10.557,4.599,22.227,6.186,33.738,6.064c-1.273,0.393-2.546,0.786-3.819,1.179c2.009,1.235,4.225,2.155,6.52,2.722&#10;&#9;&#9;c-1.46,0.634-2.925,1.26-4.385,1.894c5.583,1.872,11.092,4.743,14.529,9.526c2.014,2.792,3.115,6.353,2.97,9.759&#10;&#9;&#9;c-7.145-11.046-23.069-28.519-51.525-26.459c-10.441,0.756-17.963,2.389-23.699,4.383c-1.312,0.274-2.616,0.593-3.897,0.989&#10;&#9;&#9;c0.573-0.781,1.147-1.563,1.72-2.344c-2.146-0.346-4.28,0.63-6.12,1.786c-2.859,1.796-5.38,4.074-7.885,6.339&#10;&#9;&#9;c0.376-1.092,0.566-2.248,0.561-3.403c-1.925,3.238-3.904,6.533-6.746,9c-2.827,1.193-6.073,1.821-10.577,1.498&#10;&#9;&#9;c-19.655-1.411-19.655-1.411-19.655-1.411s-4.392-17.143-11.006-14.948c-6.614,2.195-3.428,13.482-3.428,13.482&#10;&#9;&#9;s-3.465-1.915-8.063,0.389c0,0-1.457-2.324-1.392-4.568c0.053-1.81-0.506-3.612-1.674-4.995c-0.414-0.491-0.85-0.848-1.261-0.895&#10;&#9;&#9;c-1.48-0.171-9.668,9.331-4.759,15.901c0,0-0.726,1.694-3.956,3.973c-3.23,2.279-7.816,13.122-5.388,23.639&#10;&#9;&#9;c0.633,2.74-1.423,5.464-1.405,8.289c0.016,2.498,1.409,4.853,3.34,6.184c1.93,1.331,4.326,1.71,6.588,1.382&#10;&#9;&#9;c0.338-0.049,0.684-0.113,1.017-0.03c0.357,0.089,0.661,0.336,0.975,0.542c1.331,0.872,2.967,1.035,4.506,0.82&#10;&#9;&#9;c1.539-0.215,3.016-0.778,4.499-1.277c2.006-0.674,4.043-1.234,6.102-1.678c2.381-0.513,5.082-0.796,7.019,0.804&#10;&#9;&#9;c0,0,2.048,5.519,9.756,6.46c7.709,0.941,12.701,9.719,9.285,15.353c-3.416,5.634-4.818,13.5-4.818,13.788c0-0.108,0-0.288,0-0.288&#10;&#9;&#9;c-0.804-0.162-1.629,0.288-2.406,0.012c-0.642-0.228-1.271-0.535-1.944-0.596c-0.341-0.031-0.685,0.002-1.025-0.027&#10;&#9;&#9;c-1.377-0.118-2.695-1.239-4.018-0.81c-0.312,0.101-0.595,0.283-0.869,0.474c-0.662,0.463-1.286,0.99-1.864,1.572&#10;&#9;&#9;c-0.621,0.626-1.197,1.323-1.923,1.795c-0.611,0.398-1.318,0.627-1.865,1.126c-0.858,0.783-1.167,2.155-0.887,3.338&#10;&#9;&#9;c0.281,1.184,1.083,2.169,2.052,2.777c1.162,0.729,2.58,0.952,3.882,0.612c0.598-0.156,1.165-0.425,1.723-0.707&#10;&#9;&#9;c0.164-0.083,0.336-0.17,0.517-0.167c0.186,0.003,0.359,0.099,0.526,0.188c2.368,1.258,5.182,1.473,7.688,0.589&#10;&#9;&#9;c0.858-0.303,1.709-0.735,2.611-0.711c0.916,0.024,1.99,0.466,2.647-0.234c0,0,12.61-3.212,16.94-10.54&#10;&#9;&#9;c0,0,13.49-7.891,18.165-23.961c5.698,2.046,16.168,4.362,28.28,0.161l-0.06-0.235c1.468,3.137,3.542,6.34,6.027,6.799&#10;&#9;&#9;c0,0,1.642,2.945-6.659,6.081c-8.3,3.136-19.012-3.934-20.351,2.748c0,0-5.178,4.5-0.126,8.022c0,0,12.973-0.615,19.354-0.169&#10;&#9;&#9;c0.012,0.001,0.132,0.01,0.336,0.025c0.376,0.03,0.731,0.063,1.051,0.101c0.441,0.053,0.909,0.073,1.389,0.077&#10;&#9;&#9;c1.437,0.105,3.226,0.236,4.853,0.354c2.824,0.205,5.606-0.828,7.733-2.872l3.912-3.759c0.004-0.004,0.008-0.007,0.012-0.011&#10;&#9;&#9;c0.678-0.597,1.256-1.309,1.757-2.089c1.339-2.085,4.555-6.94,7.701-10.558c4.03,1.957,9.192,3.342,15.567,3.065&#10;&#9;&#9;c-0.893,2.234-1.812,4.909-2.398,7.646c-0.845,3.948-3.973,6.816-7.665,7.136c-4.228,0.367-4.279,0.295-8.467-0.002&#10;&#9;&#9;c-0.662-0.047-1.348-0.099-1.97,0.153c-1.682,0.679-2.05,3.059-2.151,5.018c-1.548,0.908-2.432,2.998-2.064,4.877&#10;&#9;&#9;c0,0,14.265,0.952,19.411,0c5.146-0.952,15.899-3.198,17.154-3.198c1.255,0,1.421-10.536,1.421-10.536s8.385-20.814,9.324-24.3&#10;&#9;&#9;c2.461-7.257,0.917-16.212-1.389-23.025c7.745-2.997,13.603-10.812,17.656-18.455c2.824-5.335,5.291-10.943,6.261-16.895&#10;&#9;&#9;C450.22,331.879,447.533,321.521,442.239,312.973z" style="fill:#FA4616;"/>
	<path d="M468.253,168.032c-2.812-8.405-3.722-17.441-2.64-26.237c0.908,2.448,2.185,4.76,3.773,6.833&#10;&#9;&#9;c-0.476-8.951-5.548-16.988-11.181-23.961c-0.417-0.517-0.852-1.034-1.3-1.544l0.004,0.001c-1.655-3.903-13.195-10.039-17.35-10.88&#10;&#9;&#9;c1.379-0.614,2.58-1.62,3.426-2.869c-3.691,0.613-7.445,0.837-11.184,0.682c-1.335-0.349-2.687-0.622-4.063-0.775&#10;&#9;&#9;c-2.572-0.287-5.17-0.18-7.725,0.244c-3.742-0.813-7.845-0.032-10.968,2.183c1.7-1.517,3.179-3.282,4.355-5.234&#10;&#9;&#9;c-3.2,1.814-6.272,3.844-9.341,5.872c-2.152,1.422-4.397,2.946-5.559,5.25c0.489-2.941,1.284-6.312,3.962-7.622&#10;&#9;&#9;c-3.036,1.207-5.321,4.041-6.028,7.215c0.009-1.375-0.211-2.75-0.834-3.913c-0.507-0.946-1.015-1.892-1.522-2.839&#10;&#9;&#9;c0.613,4.222,0.406,8.561-0.605,12.705c-1.083,4.44-3.068,8.615-4.234,13.034c-1.098,4.159-1.447,8.511-1.048,12.794&#10;&#9;&#9;c-0.114,9.598,2.166,19.347,3.429,28.969c1.697,12.931,0.922,27.648-8.404,36.743c-0.27,0.264-0.553,0.521-0.845,0.771&#10;&#9;&#9;c4.742-25.863,2.095-63.339-21.855-81.756c-0.919-1.23-1.953-2.373-3.1-3.392c0.347,0.164,0.663,0.392,0.927,0.67&#10;&#9;&#9;c-0.317-2.037-1.943-3.809-3.946-4.299c0.629-0.139,1.21-0.49,1.624-0.984c-2.612-0.892-4.939-2.601-6.572-4.827l0.007,0.064&#10;&#9;&#9;c-4.428-7.09-9.728-16.217-10.219-20.019c-0.302-2.341-0.858-4.378-1.739-6.202c0.203-0.067,0.407-0.133,0.606-0.213&#10;&#9;&#9;c0.185-0.074,0.402-0.218,0.359-0.412c-0.017-0.078-0.076-0.139-0.133-0.194c-0.192-0.181-0.41-0.336-0.644-0.459&#10;&#9;&#9;c0.439,0.005,0.859-0.318,0.969-0.742c-0.408,0.019-0.816,0.039-1.224,0.059c0.199-0.445,0.621-0.739,0.994-1.052&#10;&#9;&#9;c0.373-0.313,0.737-0.718,0.74-1.205c-0.608,0.096-1.167,0.474-1.481,1.005c0.122-0.849,0.368-1.678,0.721-2.459&#10;&#9;&#9;c0.019-0.042,0.039-0.085,0.058-0.127c0.117-0.248,0.243-0.492,0.382-0.729l-0.104,0.103c0.016-0.038,0.034-0.078,0.05-0.115&#10;&#9;&#9;c0.831-1.938-1.03-5.944-2.21-8.153c-0.496-0.929-1.542-1.423-2.579-1.232c-0.701,0.129-1.309,0.559-1.665,1.177l-3.66,6.346&#10;&#9;&#9;l-5.324-2.842l-0.788-4.978c0,0-2.102-6.358-2.81-6.27c-0.708,0.088-3.591,1.567-3.781,2.416c-0.191,0.848-4.083,6.166-2.348,9.889&#10;&#9;&#9;c0,0-15.466-0.092-25.817,15.436c0,0-6.499,2.071-6.362,5.211c0.138,3.14,2.149,5.858,3.432,6.015c0,0,1.683,5.411,6.735,6.677&#10;&#9;&#9;c0,0,3.976,5.82,12.912,4.046c0,0,4.899,8.926,2.284,13.293c-0.405,0.676-0.881,1.578-1.35,2.632&#10;&#9;&#9;c-4.263-0.364-8.512-1.321-12.385-3.118c-2.067-0.967-4.054-2.119-6.206-2.914c-2.722-0.992-5.629-1.378-8.517-1.758&#10;&#9;&#9;c-1.42-0.194-2.881-0.367-4.258,0.016c-1.377,0.383-2.66,1.502-2.777,2.924c-1.309,0.161-2.772,0.97-3.188,2.212&#10;&#9;&#9;c-0.408,1.255,0.615,2.884,1.913,2.687c-0.744,0.732-0.468,2.563,0.382,3.177c0.852,0.604,1.959,0.669,3.005,0.714&#10;&#9;&#9;c0.099,0.969,1.227,1.614,2.136,1.96c3.582,1.356,7.674,1.267,11.199-0.212c6.281,8.189,15.15,14.51,24.928,18.023&#10;&#9;&#9;c0.795,0.504,1.473,1.202,1.956,2.013c0.801,1.347,1.086,2.971,0.917,4.529c0.752-0.915,1.192-2.082,1.231-3.266&#10;&#9;&#9;c0.951,0.729,1.442,1.937,1.545,3.131c0.103,1.194-0.139,2.388-0.416,3.554c-0.278,1.166-0.594,2.333-0.645,3.53&#10;&#9;&#9;c0.27-0.983,0.862-1.875,1.664-2.505c-0.53,2.223-0.342,4.611,0.528,6.724c0.186,0.45,0.414,0.891,0.708,1.276&#10;&#9;&#9;c-0.323,2.005-0.647,3.294-0.647,3.294s-12.835,29.368,2.664,46.518c-5.921,1.34-12.16,0.504-18.114-0.8&#10;&#9;&#9;c-1.619-0.355-3.312-0.74-4.911-0.305c-1.599,0.435-3.026,2.007-2.669,3.626c-3.634,0.497-6.918,3.036-8.314,6.427&#10;&#9;&#9;c-0.121,0.293-0.228,0.623-0.12,0.92c0.125,0.341,0.488,0.523,0.823,0.664c9.386,3.956,20.125,1.365,30.262,2.364&#10;&#9;&#9;c4.186,0.413,8.295,1.447,12.485,1.823c3.598,0.323,7.362,0.109,10.651-1.307c0.553,0.088,1.117,0.169,1.701,0.236&#10;&#9;&#9;c11.853,1.363,24.327,1.379,32.329-9.743c1.172,0.918,2.422,1.734,3.732,2.426c5.136,2.713,11.039,3.686,16.857,3.527&#10;&#9;&#9;c4.882,1.101,10.128-0.743,14.832-2.734c5.207-2.204,10.788-4.644,16.315-3.452c-1.1-0.9-2.441-1.505-3.844-1.735&#10;&#9;&#9;c3.137-0.949,5.635-3.42,7.302-6.243c1.667-2.822,2.606-6.005,3.529-9.15c-1.153,2.471-3.273,4.465-5.798,5.492&#10;&#9;&#9;c1.993-3.663,3.202-7.771,3.517-11.909c0.398-3.142,0.689-6.298,0.838-9.461c0.056-1.189,0.096-2.391,0.4-3.542&#10;&#9;&#9;c0.304-1.151,0.901-2.267,1.869-2.96c-1.85,0.706-3.285,2.406-3.67,4.348c-0.816-1.083-1.643-2.188-2.101-3.465&#10;&#9;&#9;c-0.458-1.276-0.5-2.774,0.217-3.925c-0.71,0.81-1.278,1.74-1.695,2.733c-1.005-1.725-1.836-3.718-0.639-5.164&#10;&#9;&#9;c1.211-1.463,3.497-1.026,5.346-0.613c6.713,1.502,14.187,0.749,19.747-3.32c1.442-1.055,2.693-2.278,3.786-3.625&#10;&#9;&#9;c2.181-1.76,3.986-3.984,5.197-6.512c-0.263,1.874-0.525,3.747-0.788,5.621c2.411-5.653,3.789-11.745,4.044-17.886&#10;&#9;&#9;C465.624,164.476,466.939,166.254,468.253,168.032z" style="fill:#FA4616;"/>
	<path d="M210.52,345.879c-1.053-0.906-2.741-1.872-4.544-2.566c3.64-11.902,0.706-22.32,0.706-22.32&#10;&#9;&#9;c2.076-0.692,3.811-3.562,3.811-3.562c9.29-13.271-3.074-16.44-2.107-22.544c0.968-6.103-2.829-16.152-2.829-16.152&#10;&#9;&#9;c4.02-6.401-2.158-13.547-2.158-13.547c-3.201,0.372-7.927,9.233-7.927,9.233c-11.333-3.69-22.14,3.163-22.14,3.163&#10;&#9;&#9;c-1.766-5.665-10.055-3.873-10.055-3.873c-6.045,6.179,2.686,20.284,2.686,20.284c-6.448,11.149-3.761,18.94-3.761,18.94&#10;&#9;&#9;c-0.785,3.11-2.749,5.868-5.346,8.281l0.075-0.115c-2.732,1.836-6.091,2.418-9.339,2.956c0.817,0.484,1.785,0.71,2.732,0.636&#10;&#9;&#9;c-1.813,1.635-4.288,2.274-6.658,2.86c-1.438,0.355-2.876,0.711-4.314,1.066c0.8,0.065,1.595,0.201,2.371,0.407&#10;&#9;&#9;c-1.798,0.912-3.593,1.926-5.221,3.125c-1.047,0.357-2.017,0.669-2.871,0.93c-3.526,1.079-6.846,2.802-9.604,5.249&#10;&#9;&#9;c-17.628,15.645-16.712,45.555-13.008,65.653c0-0.001-0.001-0.002-0.002-0.003c0.03,0.947,0.05,1.894,0.068,2.832&#10;&#9;&#9;c-2.367-4.649-4.733-9.299-7.11-13.948c-0.161,0.976-0.332,1.953-0.503,2.929c-3.965-10.308-3.927-22.103,0.125-32.373&#10;&#9;&#9;c3.528-8.947,9.819-16.471,15.357-24.335c5.549-7.856,10.565-16.654,10.915-26.263c0.143-3.89-0.539-7.802-1.92-11.439&#10;&#9;&#9;c-1.024-6.193-3.86-12.112-7.929-16.926c-0.168,1.005-0.336,2.011-0.496,3.006c-1.247-1.296-2.485-2.593-3.732-3.89l0.641,2.841&#10;&#9;&#9;c-5.568-8.371-15.347-13.78-25.394-14.057c-10.055-0.266-20.115,4.604-26.128,12.663c1.159,0.627,2.31,1.264,3.46,1.892&#10;&#9;&#9;c-0.838,0.619-1.685,1.239-2.522,1.858c5.327,2.253,9.682,6.728,11.804,12.11c2.124,5.392,1.988,11.626-0.365,16.915&#10;&#9;&#9;c-3.348,7.494-10.96,13.372-11.242,21.578c-0.351-0.874-0.713-1.748-1.074-2.622c-0.517,3.076-1.045,6.143-1.563,9.219&#10;&#9;&#9;c-0.191-0.726-0.381-1.443-0.581-2.169c0.253,0.953-0.827,3.36-0.966,4.459c-0.213,1.698-0.268,3.428-0.151,5.131&#10;&#9;&#9;c0.09,1.444,0.337,2.814,0.669,4.155c-0.35-0.574-0.708-1.138-1.056-1.703c-3.095,19.869-0.988,42.996,13.1,57.351&#10;&#9;&#9;c3.422,3.622,7.665,6.841,12.344,8.626c5.114,1.952,11.132,1.911,16.513,2.808c4.752,0.792,9.473,1.113,14.233,1.777&#10;&#9;&#9;c0.317,0.044,0.633,0.11,0.949,0.165c6.148,8.196,16.099,8.482,16.099,8.482s0.899,0.304,2.786,0.326v0.039&#10;&#9;&#9;c0.447,0.855,0.027,1.908,0.158,2.868c0.21,1.552,1.881,2.552,3.447,2.644c1.565,0.105,3.192,0.794,4.718,0.426&#10;&#9;&#9;c3.736-0.921,7.643-0.789,11.497-0.631c2.473,0.092,5.262,0.329,6.866,2.21c0.921,1.093,1.186,1.095,2.298,2.307&#10;&#9;&#9;c0.705,0.768,1.924,0.934,2.698,0.235c0.914-0.827,0.393-1.947,0.231-2.968c-0.105-0.605,0.618-1.013,1.092-0.605&#10;&#9;&#9;c1,0.855,1.986,1.697,2.986,2.552c0.908,0.776,2.631,1.368,2.999,0.224c0.118-0.355,0-0.737-0.106-1.092&#10;&#9;&#9;c-0.303-0.948-0.592-1.908-0.894-2.855c-0.177-0.554,0.398-1.064,0.915-0.798c0.879,0.453,1.593,1.374,2.269,2.154&#10;&#9;&#9;c0.96,1.118,2.723,2.105,3.801,1.105c-2.236-4.999-4.841-10.392-9.76-12.773c-3.545-1.72-7.746-1.584-11.426-2.89&#10;&#9;&#9;c1.369-0.756,2.796-1.583,4.28-2.486c3.099,0.706,6.261,1.091,9.428,1.142c1.221,0.02,2.494,0.002,3.591,0.579&#10;&#9;&#9;c0.698,0.367,1.277,0.954,1.955,1.364c0.678,0.41,1.549,0.624,2.219,0.199c0.632-0.4,1.017-1.314,1.75-1.349&#10;&#9;&#9;c0.608-0.029,1.049,0.575,1.468,1.048c0.42,0.473,1.147,0.863,1.592,0.418c0.445-0.446,0.15-1.279,0.416-1.867&#10;&#9;&#9;c0.317-0.704,1.286-0.727,1.917-0.338c0.631,0.39,1.079,1.05,1.68,1.49c0.602,0.44,1.527,0.583,1.983-0.026&#10;&#9;&#9;c0.272-0.363,0.285-0.874,0.243-1.338c-0.237-2.614-1.818-4.939-3.839-6.415c-2.021-1.476-4.443-2.193-6.86-2.58&#10;&#9;&#9;c-1.823-0.292-3.695-0.425-5.511-0.752c15.929-14.187,8.645-30.684,11.662-44.683c0.51,0.267,0.911,0.612,1.083,1.047&#10;&#9;&#9;c0.445,1.13-0.675,2.569,0.503,3.399c0.383,0.27,0.969,0.422,1.164,0.778c0.213,0.389-0.152,0.803-0.32,1.203&#10;&#9;&#9;c-0.393,0.933,0.391,1.983,1.599,2.458c1.207,0.476,2.719,0.448,4.024,0.124c2.639-0.655,4.499-2.414,5.28-4.303&#10;&#9;&#9;c0.78-1.889,0.625-3.906,0.262-5.857c-0.343-1.842-0.874-3.686-1.952-5.382c-1.263-1.986-3.245-3.729-4.944-5.553&#10;&#9;&#9;c1.753-1.699,3.252-3.459,4.547-5.246c0.626,0.5,1.045,1.218,0.93,1.977c-0.149,0.98-0.488,0.451-0.337,1.419&#10;&#9;&#9;c0.085,0.547,0.529,1.01,0.524,1.566c-0.008,0.76-0.857,1.458-0.656,2.188c0.203,0.736,1.357,0.976,1.526,1.72&#10;&#9;&#9;c0.106,0.466-0.223,0.932-0.324,1.408c-0.259,1.213,1.095,2.25,2.444,2.276c1.349,0.026,2.618-0.649,3.768-1.341&#10;&#9;&#9;c0.889-0.536,1.767-1.101,2.51-1.798c2.197-2.059,2.975-5.02,3.179-7.821C214.192,352.445,213.452,348.403,210.52,345.879z" style="fill:#FA4616;"/>
</g>
</svg>